<svg xmlns="http://www.w3.org/2000/svg" viewBox="0 0 256 256" role="img" aria-labelledby="title desc">
  <title id="title">SF Dry Cleaning Alliance icon</title>
  <desc id="desc">Gradient blue roundel with a clean hanger, droplet, and wave lines</desc>
  <defs>
    <linearGradient id="bg" x1="44" y1="32" x2="208" y2="224" gradientUnits="userSpaceOnUse">
      <stop offset="0" stop-color="#38bdf8" />
      <stop offset="1" stop-color="#0f1e54" />
    </linearGradient>
    <radialGradient id="glow" cx="92" cy="78" r="140" gradientUnits="userSpaceOnUse">
      <stop offset="0" stop-color="#ffffff" stop-opacity=".58" />
      <stop offset="1" stop-color="#ffffff" stop-opacity="0" />
    </radialGradient>
  </defs>
  <circle cx="128" cy="128" r="118" fill="url(#bg)" />
  <circle cx="122" cy="118" r="102" fill="url(#glow)" />
  <circle cx="128" cy="128" r="118" fill="none" stroke="#e0f2fe" stroke-width="6" stroke-opacity=".35" />
  <path
    d="M128 54c-10.7 0-19.5 8.7-19.5 19.4 0 8.9 6.2 16.7 14.8 18.7l4.7 1.2v6.4l-55 31.7a13 13 0 0 0-6.6 11.4v20c0 7.1 5.8 12.9 12.9 12.9h102.4c7.1 0 12.9-5.8 12.9-12.9v-20c0-4.7-2.5-9-6.6-11.4l-55-31.7v-6.4l4.7-1.2c8.6-2 14.8-9.8 14.8-18.7C147.5 62.7 138.7 54 128 54Z"
    fill="none"
    stroke="#ffffff"
    stroke-width="12"
    stroke-linecap="round"
    stroke-linejoin="round"
  />
  <path
    d="M126 69c-2.9 0-5.3 2.4-5.3 5.3 0 2.5 1.8 4.7 4.2 5.2l3.1.8v7.5"
    fill="none"
    stroke="#e0f2fe"
    stroke-width="8"
    stroke-linecap="round"
  />
  <path
    d="M128 116.5c-6.6 12.2-10 19.4-10 22.9 0 6.1 4.7 11 10 11s10-4.9 10-11c0-3.5-3.4-10.7-10-22.9Z"
    fill="#e0f2fe"
  />
  <path
    d="M60 174c12.5 9.7 25.6 14.6 39.8 14.6 14.1 0 27.3-4.9 39.8-14.6 12.6 9.7 25.7 14.6 39.9 14.6 11.2 0 21.4-3 31.5-9"
    fill="none"
    stroke="#dbeafe"
    stroke-width="10"
    stroke-linecap="round"
    stroke-linejoin="round"
  />
  <path
    d="M182 68c4.2 3 6.7 6.3 6.7 9.6 0 7-8.9 12.6-22.7 14.6"
    fill="none"
    stroke="#e0f2fe"
    stroke-width="6"
    stroke-linecap="round"
  />
  <path
    d="M86 70c-4.6 3-7.3 6.4-7.3 9.9 0 6.4 7.2 11.6 19.2 14"
    fill="none"
    stroke="#e0f2fe"
    stroke-width="6"
    stroke-linecap="round"
  />
  <circle cx="184" cy="90" r="4.5" fill="#f8fbff" />
  <circle cx="86" cy="96" r="4" fill="#f8fbff" />
</svg>
